{
    "asset" : {
        "generator" : "Khronos glTF Blender I/O v3.3.32",
        "version" : "2.0"
    },
    "scene" : 0,
    "scenes" : [
        {
            "name" : "Scene",
            "nodes" : [
                0
            ]
        }
    ],
    "nodes" : [
        {
            "mesh" : 0,
            "name" : "Box",
            "translation" : [
                0.00029874307801947,
                0.04390966147184372,
                0.012767210602760315
            ]
        }
    ],
    "materials" : [
        {
            "doubleSided" : true,
            "name" : "Material",
            "normalTexture" : {
                "index" : 0
            },
            "pbrMetallicRoughness" : {
                "baseColorTexture" : {
                    "index" : 1
                },
                "metallicRoughnessTexture" : {
                    "index" : 2
                }
            }
        }
    ],
    "meshes" : [
        {
            "name" : "Cylinder.005",
            "primitives" : [
                {
                    "attributes" : {
                        "POSITION" : 0,
                        "NORMAL" : 1,
                        "TEXCOORD_0" : 2
                    },
                    "indices" : 3,
                    "material" : 0
                }
            ]
        }
    ],
    "textures" : [
        {
            "sampler" : 0,
            "source" : 0
        },
        {
            "sampler" : 0,
            "source" : 1
        },
        {
            "sampler" : 0,
            "source" : 2
        }
    ],
    "images" : [
        {
            "bufferView" : 4,
            "mimeType" : "image/jpeg",
            "name" : "Box-MAT.003_Normal"
        },
        {
            "bufferView" : 5,
            "mimeType" : "image/jpeg",
            "name" : "Box-MAT.003_BaseColor"
        },
        {
            "bufferView" : 6,
            "mimeType" : "image/png",
            "name" : "Box-MAT.003_Metallic-Box-MAT.003_Roughness"
        }
    ],
    "accessors" : [
        {
            "bufferView" : 0,
            "componentType" : 5126,
            "count" : 6767,
            "max" : [
                0.0269499272108078,
                0.041189566254615784,
                0.027246983721852303
            ],
            "min" : [
                -0.026949945837259293,
                -0.04377885162830353,
                -0.026949947699904442
            ],
            "type" : "VEC3"
        },
        {
            "bufferView" : 1,
            "componentType" : 5126,
            "count" : 6767,
            "type" : "VEC3"
        },
        {
            "bufferView" : 2,
            "componentType" : 5126,
            "count" : 6767,
            "type" : "VEC2"
        },
        {
            "bufferView" : 3,
            "componentType" : 5123,
            "count" : 37398,
            "type" : "SCALAR"
        }
    ],
    "bufferViews" : [
        {
            "buffer" : 0,
            "byteLength" : 81204,
            "byteOffset" : 0,
            "target" : 34962
        },
        {
            "buffer" : 0,
            "byteLength" : 81204,
            "byteOffset" : 81204,
            "target" : 34962
        },
        {
            "buffer" : 0,
            "byteLength" : 54136,
            "byteOffset" : 162408,
            "target" : 34962
        },
        {
            "buffer" : 0,
            "byteLength" : 74796,
            "byteOffset" : 216544,
            "target" : 34963
        },
        {
            "buffer" : 0,
            "byteLength" : 568820,
            "byteOffset" : 291340
        },
        {
            "buffer" : 0,
            "byteLength" : 344295,
            "byteOffset" : 860160
        },
        {
            "buffer" : 0,
            "byteLength" : 230056,
            "byteOffset" : 1204456
        }
    ],
    "samplers" : [
        {
            "magFilter" : 9729,
            "minFilter" : 9987
        }
    ],
    "buffers" : [
        {
            "byteLength" : 1434512,
            "uri" : "data:application/octet-stream;base64,"
        }
    ]
}
