{
    "asset" : {
        "generator" : "Khronos glTF Blender I/O v3.3.32",
        "version" : "2.0"
    },
    "extensionsUsed" : [
        "KHR_materials_specular",
        "KHR_materials_ior"
    ],
    "scene" : 0,
    "scenes" : [
        {
            "name" : "Scene",
            "nodes" : [
                0
            ]
        }
    ],
    "nodes" : [
        {
            "mesh" : 0,
            "name" : "Package-low",
            "rotation" : [
                0,
                -0.21643958985805511,
                0,
                0.9762960076332092
            ],
            "translation" : [
                -0.013419831171631813,
                0,
                -0.05193787068128586
            ]
        }
    ],
    "materials" : [
        {
            "doubleSided" : true,
            "extensions" : {
                "KHR_materials_specular" : {
                    "specularColorFactor" : [
                        2.371357614441398,
                        2.371357614441398,
                        2.371357614441398
                    ]
                },
                "KHR_materials_ior" : {
                    "ior" : 1.4500000476837158
                }
            },
            "name" : "Plane_009.003",
            "normalTexture" : {
                "index" : 0
            },
            "pbrMetallicRoughness" : {
                "baseColorTexture" : {
                    "index" : 1
                },
                "metallicRoughnessTexture" : {
                    "index" : 2
                }
            }
        }
    ],
    "meshes" : [
        {
            "name" : "Plane_009.004",
            "primitives" : [
                {
                    "attributes" : {
                        "POSITION" : 0,
                        "NORMAL" : 1,
                        "TEXCOORD_0" : 2,
                        "TEXCOORD_1" : 3
                    },
                    "indices" : 4,
                    "material" : 0
                }
            ]
        }
    ],
    "textures" : [
        {
            "sampler" : 0,
            "source" : 0
        },
        {
            "sampler" : 0,
            "source" : 1
        },
        {
            "sampler" : 0,
            "source" : 2
        }
    ],
    "images" : [
        {
            "bufferView" : 5,
            "mimeType" : "image/jpeg",
            "name" : "Plane_009.003_Normal"
        },
        {
            "bufferView" : 6,
            "mimeType" : "image/jpeg",
            "name" : "Plane_009.003_BaseColor"
        },
        {
            "bufferView" : 7,
            "mimeType" : "image/png",
            "name" : "Plane_009.003_Metallic-Plane_009.003_Roughness"
        }
    ],
    "accessors" : [
        {
            "bufferView" : 0,
            "componentType" : 5126,
            "count" : 5176,
            "max" : [
                0.04571377858519554,
                0.14971424639225006,
                0.0008717339369468391
            ],
            "min" : [
                -0.04537966102361679,
                0.00010377402941230685,
                -0.05888742953538895
            ],
            "type" : "VEC3"
        },
        {
            "bufferView" : 1,
            "componentType" : 5126,
            "count" : 5176,
            "type" : "VEC3"
        },
        {
            "bufferView" : 2,
            "componentType" : 5126,
            "count" : 5176,
            "type" : "VEC2"
        },
        {
            "bufferView" : 3,
            "componentType" : 5126,
            "count" : 5176,
            "type" : "VEC2"
        },
        {
            "bufferView" : 4,
            "componentType" : 5123,
            "count" : 27360,
            "type" : "SCALAR"
        }
    ],
    "bufferViews" : [
        {
            "buffer" : 0,
            "byteLength" : 62112,
            "byteOffset" : 0,
            "target" : 34962
        },
        {
            "buffer" : 0,
            "byteLength" : 62112,
            "byteOffset" : 62112,
            "target" : 34962
        },
        {
            "buffer" : 0,
            "byteLength" : 41408,
            "byteOffset" : 124224,
            "target" : 34962
        },
        {
            "buffer" : 0,
            "byteLength" : 41408,
            "byteOffset" : 165632,
            "target" : 34962
        },
        {
            "buffer" : 0,
            "byteLength" : 54720,
            "byteOffset" : 207040,
            "target" : 34963
        },
        {
            "buffer" : 0,
            "byteLength" : 1451100,
            "byteOffset" : 261760
        },
        {
            "buffer" : 0,
            "byteLength" : 1187949,
            "byteOffset" : 1712860
        },
        {
            "buffer" : 0,
            "byteLength" : 230055,
            "byteOffset" : 2900812
        }
    ],
    "samplers" : [
        {
            "magFilter" : 9729,
            "minFilter" : 9987
        }
    ],
    "buffers" : [
        {
            "byteLength" : 3130868,
            "uri" : "data:application/octet-stream;base64,"
        }
    ]
}
