{
    "asset" : {
        "generator" : "Khronos glTF Blender I/O v3.3.32",
        "version" : "2.0"
    },
    "scene" : 0,
    "scenes" : [
        {
            "name" : "Scene",
            "nodes" : [
                0,
                1
            ]
        }
    ],
    "nodes" : [
        {
            "mesh" : 0,
            "name" : "Box",
            "translation" : [
                0.016289975494146347,
                0.04390966147184372,
                0.030677391216158867
            ]
        },
        {
            "mesh" : 1,
            "name" : "Sensor",
            "rotation" : [
                0.4550487995147705,
                -0.4986681342124939,
                0.3491711914539337,
                0.6498770117759705
            ],
            "translation" : [
                -0.018649131059646606,
                0.01664491929113865,
                0.042027588933706284
            ]
        }
    ],
    "materials" : [
        {
            "doubleSided" : true,
            "name" : "BoxandSensor-MAT",
            "normalTexture" : {
                "index" : 0
            },
            "pbrMetallicRoughness" : {
                "baseColorTexture" : {
                    "index" : 1
                },
                "metallicRoughnessTexture" : {
                    "index" : 2
                }
            }
        }
    ],
    "meshes" : [
        {
            "name" : "Cylinder.010",
            "primitives" : [
                {
                    "attributes" : {
                        "POSITION" : 0,
                        "NORMAL" : 1,
                        "TEXCOORD_0" : 2
                    },
                    "indices" : 3,
                    "material" : 0
                }
            ]
        },
        {
            "name" : "Cylinder.023",
            "primitives" : [
                {
                    "attributes" : {
                        "POSITION" : 4,
                        "NORMAL" : 5,
                        "TEXCOORD_0" : 6
                    },
                    "indices" : 7,
                    "material" : 0
                }
            ]
        }
    ],
    "textures" : [
        {
            "sampler" : 0,
            "source" : 0
        },
        {
            "sampler" : 0,
            "source" : 1
        },
        {
            "sampler" : 0,
            "source" : 2
        }
    ],
    "images" : [
        {
            "bufferView" : 4,
            "mimeType" : "image/jpeg",
            "name" : "BoxandSensor-MAT_Normal"
        },
        {
            "bufferView" : 5,
            "mimeType" : "image/jpeg",
            "name" : "BoxandSensor-MAT_BaseColor"
        },
        {
            "bufferView" : 6,
            "mimeType" : "image/png",
            "name" : "BoxandSensor-MAT_Metallic-BoxandSensor-MAT_Roughness"
        }
    ],
    "accessors" : [
        {
            "bufferView" : 0,
            "componentType" : 5126,
            "count" : 6767,
            "max" : [
                0.0269499272108078,
                0.041189566254615784,
                0.027246983721852303
            ],
            "min" : [
                -0.026949945837259293,
                -0.04377885162830353,
                -0.026949947699904442
            ],
            "type" : "VEC3"
        },
        {
            "bufferView" : 1,
            "componentType" : 5126,
            "count" : 6767,
            "type" : "VEC3"
        },
        {
            "bufferView" : 2,
            "componentType" : 5126,
            "count" : 6767,
            "type" : "VEC2"
        },
        {
            "bufferView" : 3,
            "componentType" : 5123,
            "count" : 37398,
            "type" : "SCALAR"
        },
        {
            "bufferView" : 7,
            "componentType" : 5126,
            "count" : 1444,
            "max" : [
                0.017945421859622,
                0.0016960622742772102,
                0.016236869618296623
            ],
            "min" : [
                -0.017945487052202225,
                -0.00423157773911953,
                -0.017943236976861954
            ],
            "type" : "VEC3"
        },
        {
            "bufferView" : 8,
            "componentType" : 5126,
            "count" : 1444,
            "type" : "VEC3"
        },
        {
            "bufferView" : 9,
            "componentType" : 5126,
            "count" : 1444,
            "type" : "VEC2"
        },
        {
            "bufferView" : 10,
            "componentType" : 5123,
            "count" : 6612,
            "type" : "SCALAR"
        }
    ],
    "bufferViews" : [
        {
            "buffer" : 0,
            "byteLength" : 81204,
            "byteOffset" : 0,
            "target" : 34962
        },
        {
            "buffer" : 0,
            "byteLength" : 81204,
            "byteOffset" : 81204,
            "target" : 34962
        },
        {
            "buffer" : 0,
            "byteLength" : 54136,
            "byteOffset" : 162408,
            "target" : 34962
        },
        {
            "buffer" : 0,
            "byteLength" : 74796,
            "byteOffset" : 216544,
            "target" : 34963
        },
        {
            "buffer" : 0,
            "byteLength" : 670116,
            "byteOffset" : 291340
        },
        {
            "buffer" : 0,
            "byteLength" : 383206,
            "byteOffset" : 961456
        },
        {
            "buffer" : 0,
            "byteLength" : 673757,
            "byteOffset" : 1344664
        },
        {
            "buffer" : 0,
            "byteLength" : 17328,
            "byteOffset" : 2018424,
            "target" : 34962
        },
        {
            "buffer" : 0,
            "byteLength" : 17328,
            "byteOffset" : 2035752,
            "target" : 34962
        },
        {
            "buffer" : 0,
            "byteLength" : 11552,
            "byteOffset" : 2053080,
            "target" : 34962
        },
        {
            "buffer" : 0,
            "byteLength" : 13224,
            "byteOffset" : 2064632,
            "target" : 34963
        }
    ],
    "samplers" : [
        {
            "magFilter" : 9729,
            "minFilter" : 9987
        }
    ],
    "buffers" : [
        {
            "byteLength" : 2077856,
            "uri" : "data:application/octet-stream;base64,"
        }
    ]
}
