{
    "asset" : {
        "generator" : "Khronos glTF Blender I/O v3.3.32",
        "version" : "2.0"
    },
    "scene" : 0,
    "scenes" : [
        {
            "name" : "Scene",
            "nodes" : [
                0
            ]
        }
    ],
    "nodes" : [
        {
            "mesh" : 0,
            "name" : "Box-Back-low"
        }
    ],
    "materials" : [
        {
            "doubleSided" : true,
            "name" : "Box-MAT.001",
            "normalTexture" : {
                "index" : 0
            },
            "pbrMetallicRoughness" : {
                "baseColorTexture" : {
                    "index" : 1
                },
                "metallicRoughnessTexture" : {
                    "index" : 2
                }
            }
        }
    ],
    "meshes" : [
        {
            "name" : "Cylinder.015",
            "primitives" : [
                {
                    "attributes" : {
                        "POSITION" : 0,
                        "NORMAL" : 1,
                        "TEXCOORD_0" : 2
                    },
                    "indices" : 3,
                    "material" : 0
                }
            ]
        }
    ],
    "textures" : [
        {
            "sampler" : 0,
            "source" : 0
        },
        {
            "sampler" : 0,
            "source" : 1
        },
        {
            "sampler" : 0,
            "source" : 2
        }
    ],
    "images" : [
        {
            "bufferView" : 4,
            "mimeType" : "image/jpeg",
            "name" : "Box-MAT_Normal"
        },
        {
            "bufferView" : 5,
            "mimeType" : "image/jpeg",
            "name" : "Box-MAT_BaseColor"
        },
        {
            "bufferView" : 6,
            "mimeType" : "image/png",
            "name" : "Box-MAT_Metallic.jpg-Box-MAT_Roughness.jpg"
        }
    ],
    "accessors" : [
        {
            "bufferView" : 0,
            "componentType" : 5126,
            "count" : 16166,
            "max" : [
                0.02710677869617939,
                0.085279680788517,
                0.01981537789106369
            ],
            "min" : [
                -0.02679510973393917,
                0.0003112512640655041,
                -0.03438255935907364
            ],
            "type" : "VEC3"
        },
        {
            "bufferView" : 1,
            "componentType" : 5126,
            "count" : 16166,
            "type" : "VEC3"
        },
        {
            "bufferView" : 2,
            "componentType" : 5126,
            "count" : 16166,
            "type" : "VEC2"
        },
        {
            "bufferView" : 3,
            "componentType" : 5123,
            "count" : 66348,
            "type" : "SCALAR"
        }
    ],
    "bufferViews" : [
        {
            "buffer" : 0,
            "byteLength" : 193992,
            "byteOffset" : 0,
            "target" : 34962
        },
        {
            "buffer" : 0,
            "byteLength" : 193992,
            "byteOffset" : 193992,
            "target" : 34962
        },
        {
            "buffer" : 0,
            "byteLength" : 129328,
            "byteOffset" : 387984,
            "target" : 34962
        },
        {
            "buffer" : 0,
            "byteLength" : 132696,
            "byteOffset" : 517312,
            "target" : 34963
        },
        {
            "buffer" : 0,
            "byteLength" : 639823,
            "byteOffset" : 650008
        },
        {
            "buffer" : 0,
            "byteLength" : 376615,
            "byteOffset" : 1289832
        },
        {
            "buffer" : 0,
            "byteLength" : 230056,
            "byteOffset" : 1666448
        }
    ],
    "samplers" : [
        {
            "magFilter" : 9729,
            "minFilter" : 9987
        }
    ],
    "buffers" : [
        {
            "byteLength" : 1896504,
            "uri" : "data:application/octet-stream;base64,"
        }
    ]
}
