{
    "asset" : {
        "generator" : "Khronos glTF Blender I/O v3.3.32",
        "version" : "2.0"
    },
    "extensionsUsed" : [
        "KHR_materials_specular",
        "KHR_materials_ior"
    ],
    "scene" : 0,
    "scenes" : [
        {
            "name" : "Scene",
            "nodes" : [
                0,
                1,
                2,
                3,
                4,
                13
            ]
        }
    ],
    "nodes" : [
        {
            "name" : "boitier",
            "rotation" : [
                0.7071068286895752,
                0,
                0,
                0.7071067094802856
            ]
        },
        {
            "name" : "capteur",
            "rotation" : [
                0.7071068286895752,
                0,
                0,
                0.7071068286895752
            ]
        },
        {
            "name" : "Empty",
            "rotation" : [
                0.7071068286895752,
                0,
                0,
                0.7071068286895752
            ]
        },
        {
            "mesh" : 0,
            "name" : "Plane.001",
            "rotation" : [
                0.7071068286895752,
                0,
                0,
                0.7071068286895752
            ],
            "scale" : [
                0.45000001788139343,
                1,
                0.75
            ],
            "translation" : [
                0,
                0.07500000298023224,
                0
            ]
        },
        {
            "mesh" : 1,
            "name" : "Plane.002",
            "rotation" : [
                0.7071068286895752,
                0,
                0,
                0.7071068286895752
            ],
            "scale" : [
                0.45000001788139343,
                1,
                0.75
            ],
            "translation" : [
                0,
                0.07500000298023224,
                -0.06000000238418579
            ]
        },
        {
            "mesh" : 2,
            "name" : "Cylinder",
            "translation" : [
                0.0003059990704059601,
                0.045617323368787766,
                0.21242058277130127
            ]
        },
        {
            "mesh" : 3,
            "name" : "Cylinder.001",
            "translation" : [
                0.0003059990704059601,
                0.027474382892251015,
                0.21242058277130127
            ]
        },
        {
            "mesh" : 4,
            "name" : "Cylinder.002",
            "translation" : [
                0.0003059990704059601,
                0.027496913447976112,
                0.21353794634342194
            ]
        },
        {
            "mesh" : 5,
            "name" : "Cylinder.003",
            "translation" : [
                -0.0002979361452162266,
                0.015798190608620644,
                0.23600322008132935
            ]
        },
        {
            "mesh" : 6,
            "name" : "Cylinder.006",
            "translation" : [
                -0.07164036482572556,
                0.005241489503532648,
                0.2085208296775818
            ]
        },
        {
            "mesh" : 7,
            "name" : "Cylinder.007",
            "translation" : [
                -0.07164036482572556,
                0.005241489503532648,
                0.2085208296775818
            ]
        },
        {
            "mesh" : 8,
            "name" : "Cylinder.008",
            "translation" : [
                -0.07164036482572556,
                0.006451761815696955,
                0.20852084457874298
            ]
        },
        {
            "mesh" : 9,
            "name" : "Plane",
            "translation" : [
                -0.0002329484559595585,
                0.03863666579127312,
                0.24076879024505615
            ]
        },
        {
            "children" : [
                5,
                6,
                7,
                8,
                9,
                10,
                11,
                12
            ],
            "name" : "Empty.001"
        }
    ],
    "materials" : [
        {
            "doubleSided" : true,
            "name" : "Material.001",
            "pbrMetallicRoughness" : {
                "metallicFactor" : 0,
                "roughnessFactor" : 0.5
            }
        },
        {
            "doubleSided" : true,
            "extensions" : {
                "KHR_materials_specular" : {
                    "specularColorFactor" : [
                        0.6696321252011348,
                        0.6696321252011348,
                        0.6696321252011348
                    ]
                },
                "KHR_materials_ior" : {
                    "ior" : 1.4500000476837158
                }
            },
            "name" : "Material.003",
            "pbrMetallicRoughness" : {
                "baseColorFactor" : [
                    0,
                    0.24299851059913635,
                    0.8000000715255737,
                    1
                ],
                "metallicFactor" : 0,
                "roughnessFactor" : 0.3730570077896118
            }
        },
        {
            "doubleSided" : true,
            "name" : "Material.002",
            "pbrMetallicRoughness" : {
                "baseColorFactor" : [
                    0.23955099284648895,
                    0.23955099284648895,
                    0.23955099284648895,
                    0.7046632170677185
                ],
                "metallicFactor" : 0,
                "roughnessFactor" : 0.5
            }
        }
    ],
    "meshes" : [
        {
            "name" : "Plane.003",
            "primitives" : [
                {
                    "attributes" : {
                        "POSITION" : 0,
                        "NORMAL" : 1,
                        "TEXCOORD_0" : 2
                    },
                    "indices" : 3
                }
            ]
        },
        {
            "name" : "Plane.004",
            "primitives" : [
                {
                    "attributes" : {
                        "POSITION" : 4,
                        "NORMAL" : 5,
                        "TEXCOORD_0" : 6
                    },
                    "indices" : 3
                }
            ]
        },
        {
            "name" : "Cylinder",
            "primitives" : [
                {
                    "attributes" : {
                        "POSITION" : 7,
                        "NORMAL" : 8,
                        "TEXCOORD_0" : 9
                    },
                    "indices" : 10,
                    "material" : 0
                }
            ]
        },
        {
            "name" : "Cylinder.004",
            "primitives" : [
                {
                    "attributes" : {
                        "POSITION" : 11,
                        "NORMAL" : 12,
                        "TEXCOORD_0" : 13
                    },
                    "indices" : 14,
                    "material" : 1
                }
            ]
        },
        {
            "name" : "Cylinder.001",
            "primitives" : [
                {
                    "attributes" : {
                        "POSITION" : 15,
                        "NORMAL" : 16,
                        "TEXCOORD_0" : 17
                    },
                    "indices" : 18,
                    "material" : 1
                }
            ]
        },
        {
            "name" : "Cylinder.003",
            "primitives" : [
                {
                    "attributes" : {
                        "POSITION" : 19,
                        "NORMAL" : 20,
                        "TEXCOORD_0" : 21
                    },
                    "indices" : 22,
                    "material" : 1
                }
            ]
        },
        {
            "name" : "Cylinder.006",
            "primitives" : [
                {
                    "attributes" : {
                        "POSITION" : 23,
                        "NORMAL" : 24,
                        "TEXCOORD_0" : 25
                    },
                    "indices" : 26
                }
            ]
        },
        {
            "name" : "Cylinder.007",
            "primitives" : [
                {
                    "attributes" : {
                        "POSITION" : 27,
                        "NORMAL" : 28,
                        "TEXCOORD_0" : 29
                    },
                    "indices" : 30,
                    "material" : 2
                }
            ]
        },
        {
            "name" : "Cylinder.008",
            "primitives" : [
                {
                    "attributes" : {
                        "POSITION" : 31,
                        "NORMAL" : 32,
                        "TEXCOORD_0" : 33
                    },
                    "indices" : 34,
                    "material" : 2
                }
            ]
        },
        {
            "name" : "Plane",
            "primitives" : [
                {
                    "attributes" : {
                        "POSITION" : 35,
                        "NORMAL" : 36,
                        "TEXCOORD_0" : 37
                    },
                    "indices" : 38,
                    "material" : 1
                }
            ]
        }
    ],
    "accessors" : [
        {
            "bufferView" : 0,
            "componentType" : 5126,
            "count" : 99,
            "max" : [
                0.10000000149011612,
                4.719140633824281e-10,
                0.10000000149011612
            ],
            "min" : [
                -0.10000000149011612,
                -3.1663938138137837e-10,
                -0.10000000149011612
            ],
            "type" : "VEC3"
        },
        {
            "bufferView" : 1,
            "componentType" : 5126,
            "count" : 99,
            "type" : "VEC3"
        },
        {
            "bufferView" : 2,
            "componentType" : 5126,
            "count" : 99,
            "type" : "VEC2"
        },
        {
            "bufferView" : 3,
            "componentType" : 5123,
            "count" : 462,
            "type" : "SCALAR"
        },
        {
            "bufferView" : 4,
            "componentType" : 5126,
            "count" : 99,
            "max" : [
                0.10000000149011612,
                4.719140633824281e-10,
                0.10000000149011612
            ],
            "min" : [
                -0.10000000149011612,
                -3.1663938138137837e-10,
                -0.10000000149011612
            ],
            "type" : "VEC3"
        },
        {
            "bufferView" : 5,
            "componentType" : 5126,
            "count" : 99,
            "type" : "VEC3"
        },
        {
            "bufferView" : 6,
            "componentType" : 5126,
            "count" : 99,
            "type" : "VEC2"
        },
        {
            "bufferView" : 7,
            "componentType" : 5126,
            "count" : 703,
            "max" : [
                0.028118690475821495,
                0.04287390783429146,
                0.028407197445631027
            ],
            "min" : [
                -0.028118690475821495,
                -0.009038950316607952,
                -0.028118690475821495
            ],
            "type" : "VEC3"
        },
        {
            "bufferView" : 8,
            "componentType" : 5126,
            "count" : 703,
            "type" : "VEC3"
        },
        {
            "bufferView" : 9,
            "componentType" : 5126,
            "count" : 703,
            "type" : "VEC2"
        },
        {
            "bufferView" : 10,
            "componentType" : 5123,
            "count" : 2832,
            "type" : "SCALAR"
        },
        {
            "bufferView" : 11,
            "componentType" : 5126,
            "count" : 3384,
            "max" : [
                0.02822967804968357,
                0.00899399071931839,
                0.028229672461748123
            ],
            "min" : [
                -0.028229689225554466,
                -0.02762291580438614,
                -0.028229694813489914
            ],
            "type" : "VEC3"
        },
        {
            "bufferView" : 12,
            "componentType" : 5126,
            "count" : 3384,
            "type" : "VEC3"
        },
        {
            "bufferView" : 13,
            "componentType" : 5126,
            "count" : 3384,
            "type" : "VEC2"
        },
        {
            "bufferView" : 14,
            "componentType" : 5123,
            "count" : 9444,
            "type" : "SCALAR"
        },
        {
            "bufferView" : 15,
            "componentType" : 5126,
            "count" : 367,
            "max" : [
                0.012925404123961926,
                0.008967528119683266,
                0.027156449854373932
            ],
            "min" : [
                -0.014087543822824955,
                -0.022073155269026756,
                0.022876812145113945
            ],
            "type" : "VEC3"
        },
        {
            "bufferView" : 16,
            "componentType" : 5126,
            "count" : 367,
            "type" : "VEC3"
        },
        {
            "bufferView" : 17,
            "componentType" : 5126,
            "count" : 367,
            "type" : "VEC2"
        },
        {
            "bufferView" : 18,
            "componentType" : 5123,
            "count" : 1212,
            "type" : "SCALAR"
        },
        {
            "bufferView" : 19,
            "componentType" : 5126,
            "count" : 45,
            "max" : [
                0.006805570796132088,
                0.008853571489453316,
                0.0040466077625751495
            ],
            "min" : [
                -0.006513349711894989,
                -0.002892181510105729,
                -0.0007902603247202933
            ],
            "type" : "VEC3"
        },
        {
            "bufferView" : 20,
            "componentType" : 5126,
            "count" : 45,
            "type" : "VEC3"
        },
        {
            "bufferView" : 21,
            "componentType" : 5126,
            "count" : 45,
            "type" : "VEC2"
        },
        {
            "bufferView" : 22,
            "componentType" : 5123,
            "count" : 132,
            "type" : "SCALAR"
        },
        {
            "bufferView" : 23,
            "componentType" : 5126,
            "count" : 626,
            "max" : [
                0.018068762496113777,
                0.0016470011323690414,
                0.016404135152697563
            ],
            "min" : [
                -0.01806882955133915,
                -0.001962154172360897,
                -0.018068764358758926
            ],
            "type" : "VEC3"
        },
        {
            "bufferView" : 24,
            "componentType" : 5126,
            "count" : 626,
            "type" : "VEC3"
        },
        {
            "bufferView" : 25,
            "componentType" : 5126,
            "count" : 626,
            "type" : "VEC2"
        },
        {
            "bufferView" : 26,
            "componentType" : 5123,
            "count" : 2880,
            "type" : "SCALAR"
        },
        {
            "bufferView" : 27,
            "componentType" : 5126,
            "count" : 281,
            "max" : [
                0.0025426459033042192,
                0.001697420608252287,
                0.002356811659410596
            ],
            "min" : [
                -0.0025426459033042192,
                0.0005394883919507265,
                -0.0027284808456897736
            ],
            "type" : "VEC3"
        },
        {
            "bufferView" : 28,
            "componentType" : 5126,
            "count" : 281,
            "type" : "VEC3"
        },
        {
            "bufferView" : 29,
            "componentType" : 5126,
            "count" : 281,
            "type" : "VEC2"
        },
        {
            "bufferView" : 30,
            "componentType" : 5123,
            "count" : 1260,
            "type" : "SCALAR"
        },
        {
            "bufferView" : 31,
            "componentType" : 5126,
            "count" : 383,
            "max" : [
                0.01804688759148121,
                -0.0031628580763936043,
                0.01638048328459263
            ],
            "min" : [
                -0.01804676093161106,
                -0.005440459121018648,
                -0.018044359982013702
            ],
            "type" : "VEC3"
        },
        {
            "bufferView" : 32,
            "componentType" : 5126,
            "count" : 383,
            "type" : "VEC3"
        },
        {
            "bufferView" : 33,
            "componentType" : 5126,
            "count" : 383,
            "type" : "VEC2"
        },
        {
            "bufferView" : 34,
            "componentType" : 5123,
            "count" : 810,
            "type" : "SCALAR"
        },
        {
            "bufferView" : 35,
            "componentType" : 5126,
            "count" : 82,
            "max" : [
                0.00580572709441185,
                0.018505660817027092,
                2.4436613843548116e-10
            ],
            "min" : [
                -0.00580572709441185,
                -0.024919994175434113,
                -0.002480338327586651
            ],
            "type" : "VEC3"
        },
        {
            "bufferView" : 36,
            "componentType" : 5126,
            "count" : 82,
            "type" : "VEC3"
        },
        {
            "bufferView" : 37,
            "componentType" : 5126,
            "count" : 82,
            "type" : "VEC2"
        },
        {
            "bufferView" : 38,
            "componentType" : 5123,
            "count" : 468,
            "type" : "SCALAR"
        }
    ],
    "bufferViews" : [
        {
            "buffer" : 0,
            "byteLength" : 1188,
            "byteOffset" : 0,
            "target" : 34962
        },
        {
            "buffer" : 0,
            "byteLength" : 1188,
            "byteOffset" : 1188,
            "target" : 34962
        },
        {
            "buffer" : 0,
            "byteLength" : 792,
            "byteOffset" : 2376,
            "target" : 34962
        },
        {
            "buffer" : 0,
            "byteLength" : 924,
            "byteOffset" : 3168,
            "target" : 34963
        },
        {
            "buffer" : 0,
            "byteLength" : 1188,
            "byteOffset" : 4092,
            "target" : 34962
        },
        {
            "buffer" : 0,
            "byteLength" : 1188,
            "byteOffset" : 5280,
            "target" : 34962
        },
        {
            "buffer" : 0,
            "byteLength" : 792,
            "byteOffset" : 6468,
            "target" : 34962
        },
        {
            "buffer" : 0,
            "byteLength" : 8436,
            "byteOffset" : 7260,
            "target" : 34962
        },
        {
            "buffer" : 0,
            "byteLength" : 8436,
            "byteOffset" : 15696,
            "target" : 34962
        },
        {
            "buffer" : 0,
            "byteLength" : 5624,
            "byteOffset" : 24132,
            "target" : 34962
        },
        {
            "buffer" : 0,
            "byteLength" : 5664,
            "byteOffset" : 29756,
            "target" : 34963
        },
        {
            "buffer" : 0,
            "byteLength" : 40608,
            "byteOffset" : 35420,
            "target" : 34962
        },
        {
            "buffer" : 0,
            "byteLength" : 40608,
            "byteOffset" : 76028,
            "target" : 34962
        },
        {
            "buffer" : 0,
            "byteLength" : 27072,
            "byteOffset" : 116636,
            "target" : 34962
        },
        {
            "buffer" : 0,
            "byteLength" : 18888,
            "byteOffset" : 143708,
            "target" : 34963
        },
        {
            "buffer" : 0,
            "byteLength" : 4404,
            "byteOffset" : 162596,
            "target" : 34962
        },
        {
            "buffer" : 0,
            "byteLength" : 4404,
            "byteOffset" : 167000,
            "target" : 34962
        },
        {
            "buffer" : 0,
            "byteLength" : 2936,
            "byteOffset" : 171404,
            "target" : 34962
        },
        {
            "buffer" : 0,
            "byteLength" : 2424,
            "byteOffset" : 174340,
            "target" : 34963
        },
        {
            "buffer" : 0,
            "byteLength" : 540,
            "byteOffset" : 176764,
            "target" : 34962
        },
        {
            "buffer" : 0,
            "byteLength" : 540,
            "byteOffset" : 177304,
            "target" : 34962
        },
        {
            "buffer" : 0,
            "byteLength" : 360,
            "byteOffset" : 177844,
            "target" : 34962
        },
        {
            "buffer" : 0,
            "byteLength" : 264,
            "byteOffset" : 178204,
            "target" : 34963
        },
        {
            "buffer" : 0,
            "byteLength" : 7512,
            "byteOffset" : 178468,
            "target" : 34962
        },
        {
            "buffer" : 0,
            "byteLength" : 7512,
            "byteOffset" : 185980,
            "target" : 34962
        },
        {
            "buffer" : 0,
            "byteLength" : 5008,
            "byteOffset" : 193492,
            "target" : 34962
        },
        {
            "buffer" : 0,
            "byteLength" : 5760,
            "byteOffset" : 198500,
            "target" : 34963
        },
        {
            "buffer" : 0,
            "byteLength" : 3372,
            "byteOffset" : 204260,
            "target" : 34962
        },
        {
            "buffer" : 0,
            "byteLength" : 3372,
            "byteOffset" : 207632,
            "target" : 34962
        },
        {
            "buffer" : 0,
            "byteLength" : 2248,
            "byteOffset" : 211004,
            "target" : 34962
        },
        {
            "buffer" : 0,
            "byteLength" : 2520,
            "byteOffset" : 213252,
            "target" : 34963
        },
        {
            "buffer" : 0,
            "byteLength" : 4596,
            "byteOffset" : 215772,
            "target" : 34962
        },
        {
            "buffer" : 0,
            "byteLength" : 4596,
            "byteOffset" : 220368,
            "target" : 34962
        },
        {
            "buffer" : 0,
            "byteLength" : 3064,
            "byteOffset" : 224964,
            "target" : 34962
        },
        {
            "buffer" : 0,
            "byteLength" : 1620,
            "byteOffset" : 228028,
            "target" : 34963
        },
        {
            "buffer" : 0,
            "byteLength" : 984,
            "byteOffset" : 229648,
            "target" : 34962
        },
        {
            "buffer" : 0,
            "byteLength" : 984,
            "byteOffset" : 230632,
            "target" : 34962
        },
        {
            "buffer" : 0,
            "byteLength" : 656,
            "byteOffset" : 231616,
            "target" : 34962
        },
        {
            "buffer" : 0,
            "byteLength" : 936,
            "byteOffset" : 232272,
            "target" : 34963
        }
    ],
    "buffers" : [
        {
            "byteLength" : 233208,
            "uri" : "data:application/octet-stream;base64,"
        }
    ]
}
